<mxfile host="Electron" modified="2024-02-29T15:34:05.968Z" agent="Mozilla/5.0 (Windows NT 10.0; Win64; x64) AppleWebKit/537.36 (KHTML, like Gecko) draw.io/23.1.5 Chrome/120.0.6099.109 Electron/28.1.0 Safari/537.36" etag="qdzFiz_frCNZfL3bJf76" version="23.1.5" type="device">
  <diagram name="Page-1" id="RMpaV8BEjd0HLIjDWlGQ">
    <mxGraphModel dx="1050" dy="638" grid="1" gridSize="10" guides="1" tooltips="1" connect="1" arrows="1" fold="1" page="1" pageScale="1" pageWidth="850" pageHeight="1100" math="0" shadow="0">
      <root>
        <mxCell id="0" />
        <mxCell id="1" parent="0" />
        <mxCell id="vjRFTojWmEDm4jzNf1Fv-2" value="Q1" style="ellipse;whiteSpace=wrap;html=1;" vertex="1" parent="1">
          <mxGeometry x="280" y="120" width="120" height="80" as="geometry" />
        </mxCell>
        <mxCell id="vjRFTojWmEDm4jzNf1Fv-3" value="Q2" style="ellipse;whiteSpace=wrap;html=1;" vertex="1" parent="1">
          <mxGeometry x="280" y="240" width="120" height="80" as="geometry" />
        </mxCell>
        <mxCell id="vjRFTojWmEDm4jzNf1Fv-4" value="Q3" style="ellipse;whiteSpace=wrap;html=1;" vertex="1" parent="1">
          <mxGeometry x="280" y="360" width="120" height="80" as="geometry" />
        </mxCell>
        <mxCell id="vjRFTojWmEDm4jzNf1Fv-5" value="Q4" style="ellipse;whiteSpace=wrap;html=1;" vertex="1" parent="1">
          <mxGeometry x="490" y="240" width="120" height="80" as="geometry" />
        </mxCell>
        <mxCell id="vjRFTojWmEDm4jzNf1Fv-9" value="Q0" style="ellipse;whiteSpace=wrap;html=1;" vertex="1" parent="1">
          <mxGeometry x="80" y="240" width="120" height="80" as="geometry" />
        </mxCell>
        <mxCell id="vjRFTojWmEDm4jzNf1Fv-10" value="" style="endArrow=classic;html=1;rounded=0;entryX=0;entryY=0.5;entryDx=0;entryDy=0;" edge="1" parent="1" target="vjRFTojWmEDm4jzNf1Fv-9">
          <mxGeometry width="50" height="50" relative="1" as="geometry">
            <mxPoint x="40" y="280" as="sourcePoint" />
            <mxPoint x="-10" y="330" as="targetPoint" />
          </mxGeometry>
        </mxCell>
        <mxCell id="vjRFTojWmEDm4jzNf1Fv-11" value="" style="ellipse;whiteSpace=wrap;html=1;fillColor=none;" vertex="1" parent="1">
          <mxGeometry x="485" y="235" width="130" height="90" as="geometry" />
        </mxCell>
        <mxCell id="vjRFTojWmEDm4jzNf1Fv-14" value="" style="endArrow=classic;html=1;rounded=0;exitX=1;exitY=0;exitDx=0;exitDy=0;entryX=0;entryY=0.5;entryDx=0;entryDy=0;" edge="1" parent="1" source="vjRFTojWmEDm4jzNf1Fv-9" target="vjRFTojWmEDm4jzNf1Fv-2">
          <mxGeometry width="50" height="50" relative="1" as="geometry">
            <mxPoint x="160" y="200" as="sourcePoint" />
            <mxPoint x="210" y="150" as="targetPoint" />
          </mxGeometry>
        </mxCell>
        <mxCell id="vjRFTojWmEDm4jzNf1Fv-15" value="C" style="edgeLabel;html=1;align=center;verticalAlign=middle;resizable=0;points=[];" vertex="1" connectable="0" parent="vjRFTojWmEDm4jzNf1Fv-14">
          <mxGeometry x="-0.1106" y="-1" relative="1" as="geometry">
            <mxPoint as="offset" />
          </mxGeometry>
        </mxCell>
        <mxCell id="vjRFTojWmEDm4jzNf1Fv-16" value="" style="endArrow=classic;html=1;rounded=0;exitX=1;exitY=0.5;exitDx=0;exitDy=0;entryX=0;entryY=0.5;entryDx=0;entryDy=0;" edge="1" parent="1" source="vjRFTojWmEDm4jzNf1Fv-9" target="vjRFTojWmEDm4jzNf1Fv-3">
          <mxGeometry relative="1" as="geometry">
            <mxPoint x="170" y="370" as="sourcePoint" />
            <mxPoint x="270" y="370" as="targetPoint" />
          </mxGeometry>
        </mxCell>
        <mxCell id="vjRFTojWmEDm4jzNf1Fv-17" value="T" style="edgeLabel;resizable=0;html=1;;align=center;verticalAlign=middle;" connectable="0" vertex="1" parent="vjRFTojWmEDm4jzNf1Fv-16">
          <mxGeometry relative="1" as="geometry" />
        </mxCell>
        <mxCell id="vjRFTojWmEDm4jzNf1Fv-21" value="" style="endArrow=classic;html=1;rounded=0;exitX=1;exitY=1;exitDx=0;exitDy=0;entryX=0;entryY=0.5;entryDx=0;entryDy=0;" edge="1" parent="1" source="vjRFTojWmEDm4jzNf1Fv-9" target="vjRFTojWmEDm4jzNf1Fv-4">
          <mxGeometry relative="1" as="geometry">
            <mxPoint x="90" y="440" as="sourcePoint" />
            <mxPoint x="190" y="440" as="targetPoint" />
          </mxGeometry>
        </mxCell>
        <mxCell id="vjRFTojWmEDm4jzNf1Fv-22" value="A" style="edgeLabel;resizable=0;html=1;;align=center;verticalAlign=middle;" connectable="0" vertex="1" parent="vjRFTojWmEDm4jzNf1Fv-21">
          <mxGeometry relative="1" as="geometry" />
        </mxCell>
        <mxCell id="vjRFTojWmEDm4jzNf1Fv-23" value="" style="endArrow=classic;html=1;rounded=0;exitX=0.5;exitY=1;exitDx=0;exitDy=0;entryX=0.5;entryY=1;entryDx=0;entryDy=0;curved=1;" edge="1" parent="1" source="vjRFTojWmEDm4jzNf1Fv-9" target="vjRFTojWmEDm4jzNf1Fv-11">
          <mxGeometry width="50" height="50" relative="1" as="geometry">
            <mxPoint x="230" y="580" as="sourcePoint" />
            <mxPoint x="280" y="530" as="targetPoint" />
            <Array as="points">
              <mxPoint x="340" y="600" />
            </Array>
          </mxGeometry>
        </mxCell>
        <mxCell id="vjRFTojWmEDm4jzNf1Fv-30" value="H" style="edgeLabel;html=1;align=center;verticalAlign=middle;resizable=0;points=[];" vertex="1" connectable="0" parent="vjRFTojWmEDm4jzNf1Fv-23">
          <mxGeometry x="-0.3206" y="81" relative="1" as="geometry">
            <mxPoint as="offset" />
          </mxGeometry>
        </mxCell>
        <mxCell id="vjRFTojWmEDm4jzNf1Fv-24" value="" style="endArrow=classic;html=1;rounded=0;exitX=1;exitY=0.5;exitDx=0;exitDy=0;entryX=0;entryY=0;entryDx=0;entryDy=0;" edge="1" parent="1" source="vjRFTojWmEDm4jzNf1Fv-2" target="vjRFTojWmEDm4jzNf1Fv-11">
          <mxGeometry width="50" height="50" relative="1" as="geometry">
            <mxPoint x="530" y="180" as="sourcePoint" />
            <mxPoint x="580" y="130" as="targetPoint" />
          </mxGeometry>
        </mxCell>
        <mxCell id="vjRFTojWmEDm4jzNf1Fv-27" value="OK" style="edgeLabel;html=1;align=center;verticalAlign=middle;resizable=0;points=[];" vertex="1" connectable="0" parent="vjRFTojWmEDm4jzNf1Fv-24">
          <mxGeometry x="0.0272" y="-1" relative="1" as="geometry">
            <mxPoint as="offset" />
          </mxGeometry>
        </mxCell>
        <mxCell id="vjRFTojWmEDm4jzNf1Fv-25" value="" style="endArrow=classic;html=1;rounded=0;exitX=1;exitY=0.5;exitDx=0;exitDy=0;entryX=0;entryY=0.5;entryDx=0;entryDy=0;" edge="1" parent="1" source="vjRFTojWmEDm4jzNf1Fv-3" target="vjRFTojWmEDm4jzNf1Fv-11">
          <mxGeometry width="50" height="50" relative="1" as="geometry">
            <mxPoint x="380" y="340" as="sourcePoint" />
            <mxPoint x="430" y="290" as="targetPoint" />
          </mxGeometry>
        </mxCell>
        <mxCell id="vjRFTojWmEDm4jzNf1Fv-28" value="OK" style="edgeLabel;html=1;align=center;verticalAlign=middle;resizable=0;points=[];" vertex="1" connectable="0" parent="vjRFTojWmEDm4jzNf1Fv-25">
          <mxGeometry x="-0.2235" y="-1" relative="1" as="geometry">
            <mxPoint as="offset" />
          </mxGeometry>
        </mxCell>
        <mxCell id="vjRFTojWmEDm4jzNf1Fv-26" value="" style="endArrow=classic;html=1;rounded=0;exitX=1;exitY=0.5;exitDx=0;exitDy=0;entryX=0;entryY=1;entryDx=0;entryDy=0;" edge="1" parent="1" source="vjRFTojWmEDm4jzNf1Fv-4" target="vjRFTojWmEDm4jzNf1Fv-11">
          <mxGeometry width="50" height="50" relative="1" as="geometry">
            <mxPoint x="420" y="370" as="sourcePoint" />
            <mxPoint x="470" y="320" as="targetPoint" />
          </mxGeometry>
        </mxCell>
        <mxCell id="vjRFTojWmEDm4jzNf1Fv-29" value="OK" style="edgeLabel;html=1;align=center;verticalAlign=middle;resizable=0;points=[];" vertex="1" connectable="0" parent="vjRFTojWmEDm4jzNf1Fv-26">
          <mxGeometry x="-0.1947" y="-2" relative="1" as="geometry">
            <mxPoint as="offset" />
          </mxGeometry>
        </mxCell>
        <mxCell id="vjRFTojWmEDm4jzNf1Fv-31" value="" style="endArrow=classic;html=1;rounded=0;exitX=0.5;exitY=0;exitDx=0;exitDy=0;entryX=0.5;entryY=0;entryDx=0;entryDy=0;curved=1;" edge="1" parent="1" source="vjRFTojWmEDm4jzNf1Fv-11" target="vjRFTojWmEDm4jzNf1Fv-9">
          <mxGeometry width="50" height="50" relative="1" as="geometry">
            <mxPoint x="540" y="170" as="sourcePoint" />
            <mxPoint x="590" y="120" as="targetPoint" />
            <Array as="points">
              <mxPoint x="330" y="-20" />
            </Array>
          </mxGeometry>
        </mxCell>
        <mxCell id="vjRFTojWmEDm4jzNf1Fv-32" value="OK" style="edgeLabel;html=1;align=center;verticalAlign=middle;resizable=0;points=[];" vertex="1" connectable="0" parent="vjRFTojWmEDm4jzNf1Fv-31">
          <mxGeometry x="-0.2857" y="74" relative="1" as="geometry">
            <mxPoint as="offset" />
          </mxGeometry>
        </mxCell>
        <mxCell id="vjRFTojWmEDm4jzNf1Fv-119" value="" style="shape=table;startSize=0;container=1;collapsible=0;childLayout=tableLayout;fontSize=16;" vertex="1" parent="1">
          <mxGeometry x="40" y="560" width="520" height="372" as="geometry" />
        </mxCell>
        <mxCell id="vjRFTojWmEDm4jzNf1Fv-120" value="" style="shape=tableRow;horizontal=0;startSize=0;swimlaneHead=0;swimlaneBody=0;strokeColor=inherit;top=0;left=0;bottom=0;right=0;collapsible=0;dropTarget=0;fillColor=none;points=[[0,0.5],[1,0.5]];portConstraint=eastwest;fontSize=16;" vertex="1" parent="vjRFTojWmEDm4jzNf1Fv-119">
          <mxGeometry width="520" height="53" as="geometry" />
        </mxCell>
        <mxCell id="vjRFTojWmEDm4jzNf1Fv-121" value="States/Input" style="shape=partialRectangle;html=1;whiteSpace=wrap;connectable=0;strokeColor=inherit;overflow=hidden;fillColor=none;top=0;left=0;bottom=0;right=0;pointerEvents=1;fontSize=16;rowspan=2;colspan=1;" vertex="1" parent="vjRFTojWmEDm4jzNf1Fv-120">
          <mxGeometry width="87" height="107" as="geometry">
            <mxRectangle width="87" height="53" as="alternateBounds" />
          </mxGeometry>
        </mxCell>
        <mxCell id="vjRFTojWmEDm4jzNf1Fv-122" value="Input" style="shape=partialRectangle;html=1;whiteSpace=wrap;connectable=0;strokeColor=inherit;overflow=hidden;fillColor=none;top=0;left=0;bottom=0;right=0;pointerEvents=1;fontSize=16;rowspan=1;colspan=5;" vertex="1" parent="vjRFTojWmEDm4jzNf1Fv-120">
          <mxGeometry x="87" width="433" height="53" as="geometry">
            <mxRectangle width="86" height="53" as="alternateBounds" />
          </mxGeometry>
        </mxCell>
        <mxCell id="vjRFTojWmEDm4jzNf1Fv-123" value="" style="shape=partialRectangle;html=1;whiteSpace=wrap;connectable=0;strokeColor=inherit;overflow=hidden;fillColor=none;top=0;left=0;bottom=0;right=0;pointerEvents=1;fontSize=16;" vertex="1" visible="0" parent="vjRFTojWmEDm4jzNf1Fv-120">
          <mxGeometry x="173" width="87" height="53" as="geometry">
            <mxRectangle width="87" height="53" as="alternateBounds" />
          </mxGeometry>
        </mxCell>
        <mxCell id="vjRFTojWmEDm4jzNf1Fv-132" style="shape=partialRectangle;html=1;whiteSpace=wrap;connectable=0;strokeColor=inherit;overflow=hidden;fillColor=none;top=0;left=0;bottom=0;right=0;pointerEvents=1;fontSize=16;" vertex="1" visible="0" parent="vjRFTojWmEDm4jzNf1Fv-120">
          <mxGeometry x="260" width="87" height="53" as="geometry">
            <mxRectangle width="87" height="53" as="alternateBounds" />
          </mxGeometry>
        </mxCell>
        <mxCell id="vjRFTojWmEDm4jzNf1Fv-135" style="shape=partialRectangle;html=1;whiteSpace=wrap;connectable=0;strokeColor=inherit;overflow=hidden;fillColor=none;top=0;left=0;bottom=0;right=0;pointerEvents=1;fontSize=16;" vertex="1" visible="0" parent="vjRFTojWmEDm4jzNf1Fv-120">
          <mxGeometry x="347" width="86" height="53" as="geometry">
            <mxRectangle width="86" height="53" as="alternateBounds" />
          </mxGeometry>
        </mxCell>
        <mxCell id="vjRFTojWmEDm4jzNf1Fv-138" style="shape=partialRectangle;html=1;whiteSpace=wrap;connectable=0;strokeColor=inherit;overflow=hidden;fillColor=none;top=0;left=0;bottom=0;right=0;pointerEvents=1;fontSize=16;" vertex="1" visible="0" parent="vjRFTojWmEDm4jzNf1Fv-120">
          <mxGeometry x="433" width="87" height="53" as="geometry">
            <mxRectangle width="87" height="53" as="alternateBounds" />
          </mxGeometry>
        </mxCell>
        <mxCell id="vjRFTojWmEDm4jzNf1Fv-124" value="" style="shape=tableRow;horizontal=0;startSize=0;swimlaneHead=0;swimlaneBody=0;strokeColor=inherit;top=0;left=0;bottom=0;right=0;collapsible=0;dropTarget=0;fillColor=none;points=[[0,0.5],[1,0.5]];portConstraint=eastwest;fontSize=16;" vertex="1" parent="vjRFTojWmEDm4jzNf1Fv-119">
          <mxGeometry y="53" width="520" height="54" as="geometry" />
        </mxCell>
        <mxCell id="vjRFTojWmEDm4jzNf1Fv-125" value="" style="shape=partialRectangle;html=1;whiteSpace=wrap;connectable=0;strokeColor=inherit;overflow=hidden;fillColor=none;top=0;left=0;bottom=0;right=0;pointerEvents=1;fontSize=16;" vertex="1" visible="0" parent="vjRFTojWmEDm4jzNf1Fv-124">
          <mxGeometry width="87" height="54" as="geometry">
            <mxRectangle width="87" height="54" as="alternateBounds" />
          </mxGeometry>
        </mxCell>
        <mxCell id="vjRFTojWmEDm4jzNf1Fv-126" value="C" style="shape=partialRectangle;html=1;whiteSpace=wrap;connectable=0;strokeColor=inherit;overflow=hidden;fillColor=none;top=0;left=0;bottom=0;right=0;pointerEvents=1;fontSize=16;" vertex="1" parent="vjRFTojWmEDm4jzNf1Fv-124">
          <mxGeometry x="87" width="86" height="54" as="geometry">
            <mxRectangle width="86" height="54" as="alternateBounds" />
          </mxGeometry>
        </mxCell>
        <mxCell id="vjRFTojWmEDm4jzNf1Fv-127" value="T" style="shape=partialRectangle;html=1;whiteSpace=wrap;connectable=0;strokeColor=inherit;overflow=hidden;fillColor=none;top=0;left=0;bottom=0;right=0;pointerEvents=1;fontSize=16;" vertex="1" parent="vjRFTojWmEDm4jzNf1Fv-124">
          <mxGeometry x="173" width="87" height="54" as="geometry">
            <mxRectangle width="87" height="54" as="alternateBounds" />
          </mxGeometry>
        </mxCell>
        <mxCell id="vjRFTojWmEDm4jzNf1Fv-133" value="A" style="shape=partialRectangle;html=1;whiteSpace=wrap;connectable=0;strokeColor=inherit;overflow=hidden;fillColor=none;top=0;left=0;bottom=0;right=0;pointerEvents=1;fontSize=16;" vertex="1" parent="vjRFTojWmEDm4jzNf1Fv-124">
          <mxGeometry x="260" width="87" height="54" as="geometry">
            <mxRectangle width="87" height="54" as="alternateBounds" />
          </mxGeometry>
        </mxCell>
        <mxCell id="vjRFTojWmEDm4jzNf1Fv-136" value="H" style="shape=partialRectangle;html=1;whiteSpace=wrap;connectable=0;strokeColor=inherit;overflow=hidden;fillColor=none;top=0;left=0;bottom=0;right=0;pointerEvents=1;fontSize=16;" vertex="1" parent="vjRFTojWmEDm4jzNf1Fv-124">
          <mxGeometry x="347" width="86" height="54" as="geometry">
            <mxRectangle width="86" height="54" as="alternateBounds" />
          </mxGeometry>
        </mxCell>
        <mxCell id="vjRFTojWmEDm4jzNf1Fv-139" value="OK" style="shape=partialRectangle;html=1;whiteSpace=wrap;connectable=0;strokeColor=inherit;overflow=hidden;fillColor=none;top=0;left=0;bottom=0;right=0;pointerEvents=1;fontSize=16;" vertex="1" parent="vjRFTojWmEDm4jzNf1Fv-124">
          <mxGeometry x="433" width="87" height="54" as="geometry">
            <mxRectangle width="87" height="54" as="alternateBounds" />
          </mxGeometry>
        </mxCell>
        <mxCell id="vjRFTojWmEDm4jzNf1Fv-128" value="" style="shape=tableRow;horizontal=0;startSize=0;swimlaneHead=0;swimlaneBody=0;strokeColor=inherit;top=0;left=0;bottom=0;right=0;collapsible=0;dropTarget=0;fillColor=none;points=[[0,0.5],[1,0.5]];portConstraint=eastwest;fontSize=16;" vertex="1" parent="vjRFTojWmEDm4jzNf1Fv-119">
          <mxGeometry y="107" width="520" height="53" as="geometry" />
        </mxCell>
        <mxCell id="vjRFTojWmEDm4jzNf1Fv-129" value="Q0" style="shape=partialRectangle;html=1;whiteSpace=wrap;connectable=0;strokeColor=inherit;overflow=hidden;fillColor=none;top=0;left=0;bottom=0;right=0;pointerEvents=1;fontSize=16;" vertex="1" parent="vjRFTojWmEDm4jzNf1Fv-128">
          <mxGeometry width="87" height="53" as="geometry">
            <mxRectangle width="87" height="53" as="alternateBounds" />
          </mxGeometry>
        </mxCell>
        <mxCell id="vjRFTojWmEDm4jzNf1Fv-130" value="Q1" style="shape=partialRectangle;html=1;whiteSpace=wrap;connectable=0;strokeColor=inherit;overflow=hidden;fillColor=none;top=0;left=0;bottom=0;right=0;pointerEvents=1;fontSize=16;" vertex="1" parent="vjRFTojWmEDm4jzNf1Fv-128">
          <mxGeometry x="87" width="86" height="53" as="geometry">
            <mxRectangle width="86" height="53" as="alternateBounds" />
          </mxGeometry>
        </mxCell>
        <mxCell id="vjRFTojWmEDm4jzNf1Fv-131" value="Q2" style="shape=partialRectangle;html=1;whiteSpace=wrap;connectable=0;strokeColor=inherit;overflow=hidden;fillColor=none;top=0;left=0;bottom=0;right=0;pointerEvents=1;fontSize=16;" vertex="1" parent="vjRFTojWmEDm4jzNf1Fv-128">
          <mxGeometry x="173" width="87" height="53" as="geometry">
            <mxRectangle width="87" height="53" as="alternateBounds" />
          </mxGeometry>
        </mxCell>
        <mxCell id="vjRFTojWmEDm4jzNf1Fv-134" value="Q3" style="shape=partialRectangle;html=1;whiteSpace=wrap;connectable=0;strokeColor=inherit;overflow=hidden;fillColor=none;top=0;left=0;bottom=0;right=0;pointerEvents=1;fontSize=16;" vertex="1" parent="vjRFTojWmEDm4jzNf1Fv-128">
          <mxGeometry x="260" width="87" height="53" as="geometry">
            <mxRectangle width="87" height="53" as="alternateBounds" />
          </mxGeometry>
        </mxCell>
        <mxCell id="vjRFTojWmEDm4jzNf1Fv-137" value="Q4" style="shape=partialRectangle;html=1;whiteSpace=wrap;connectable=0;strokeColor=inherit;overflow=hidden;fillColor=none;top=0;left=0;bottom=0;right=0;pointerEvents=1;fontSize=16;" vertex="1" parent="vjRFTojWmEDm4jzNf1Fv-128">
          <mxGeometry x="347" width="86" height="53" as="geometry">
            <mxRectangle width="86" height="53" as="alternateBounds" />
          </mxGeometry>
        </mxCell>
        <mxCell id="vjRFTojWmEDm4jzNf1Fv-140" style="shape=partialRectangle;html=1;whiteSpace=wrap;connectable=0;strokeColor=inherit;overflow=hidden;fillColor=none;top=0;left=0;bottom=0;right=0;pointerEvents=1;fontSize=16;" vertex="1" parent="vjRFTojWmEDm4jzNf1Fv-128">
          <mxGeometry x="433" width="87" height="53" as="geometry">
            <mxRectangle width="87" height="53" as="alternateBounds" />
          </mxGeometry>
        </mxCell>
        <mxCell id="vjRFTojWmEDm4jzNf1Fv-141" style="shape=tableRow;horizontal=0;startSize=0;swimlaneHead=0;swimlaneBody=0;strokeColor=inherit;top=0;left=0;bottom=0;right=0;collapsible=0;dropTarget=0;fillColor=none;points=[[0,0.5],[1,0.5]];portConstraint=eastwest;fontSize=16;" vertex="1" parent="vjRFTojWmEDm4jzNf1Fv-119">
          <mxGeometry y="160" width="520" height="53" as="geometry" />
        </mxCell>
        <mxCell id="vjRFTojWmEDm4jzNf1Fv-142" value="Q1" style="shape=partialRectangle;html=1;whiteSpace=wrap;connectable=0;strokeColor=inherit;overflow=hidden;fillColor=none;top=0;left=0;bottom=0;right=0;pointerEvents=1;fontSize=16;" vertex="1" parent="vjRFTojWmEDm4jzNf1Fv-141">
          <mxGeometry width="87" height="53" as="geometry">
            <mxRectangle width="87" height="53" as="alternateBounds" />
          </mxGeometry>
        </mxCell>
        <mxCell id="vjRFTojWmEDm4jzNf1Fv-143" style="shape=partialRectangle;html=1;whiteSpace=wrap;connectable=0;strokeColor=inherit;overflow=hidden;fillColor=none;top=0;left=0;bottom=0;right=0;pointerEvents=1;fontSize=16;" vertex="1" parent="vjRFTojWmEDm4jzNf1Fv-141">
          <mxGeometry x="87" width="86" height="53" as="geometry">
            <mxRectangle width="86" height="53" as="alternateBounds" />
          </mxGeometry>
        </mxCell>
        <mxCell id="vjRFTojWmEDm4jzNf1Fv-144" style="shape=partialRectangle;html=1;whiteSpace=wrap;connectable=0;strokeColor=inherit;overflow=hidden;fillColor=none;top=0;left=0;bottom=0;right=0;pointerEvents=1;fontSize=16;" vertex="1" parent="vjRFTojWmEDm4jzNf1Fv-141">
          <mxGeometry x="173" width="87" height="53" as="geometry">
            <mxRectangle width="87" height="53" as="alternateBounds" />
          </mxGeometry>
        </mxCell>
        <mxCell id="vjRFTojWmEDm4jzNf1Fv-145" style="shape=partialRectangle;html=1;whiteSpace=wrap;connectable=0;strokeColor=inherit;overflow=hidden;fillColor=none;top=0;left=0;bottom=0;right=0;pointerEvents=1;fontSize=16;" vertex="1" parent="vjRFTojWmEDm4jzNf1Fv-141">
          <mxGeometry x="260" width="87" height="53" as="geometry">
            <mxRectangle width="87" height="53" as="alternateBounds" />
          </mxGeometry>
        </mxCell>
        <mxCell id="vjRFTojWmEDm4jzNf1Fv-146" style="shape=partialRectangle;html=1;whiteSpace=wrap;connectable=0;strokeColor=inherit;overflow=hidden;fillColor=none;top=0;left=0;bottom=0;right=0;pointerEvents=1;fontSize=16;" vertex="1" parent="vjRFTojWmEDm4jzNf1Fv-141">
          <mxGeometry x="347" width="86" height="53" as="geometry">
            <mxRectangle width="86" height="53" as="alternateBounds" />
          </mxGeometry>
        </mxCell>
        <mxCell id="vjRFTojWmEDm4jzNf1Fv-147" value="Q4" style="shape=partialRectangle;html=1;whiteSpace=wrap;connectable=0;strokeColor=inherit;overflow=hidden;fillColor=none;top=0;left=0;bottom=0;right=0;pointerEvents=1;fontSize=16;" vertex="1" parent="vjRFTojWmEDm4jzNf1Fv-141">
          <mxGeometry x="433" width="87" height="53" as="geometry">
            <mxRectangle width="87" height="53" as="alternateBounds" />
          </mxGeometry>
        </mxCell>
        <mxCell id="vjRFTojWmEDm4jzNf1Fv-148" style="shape=tableRow;horizontal=0;startSize=0;swimlaneHead=0;swimlaneBody=0;strokeColor=inherit;top=0;left=0;bottom=0;right=0;collapsible=0;dropTarget=0;fillColor=none;points=[[0,0.5],[1,0.5]];portConstraint=eastwest;fontSize=16;" vertex="1" parent="vjRFTojWmEDm4jzNf1Fv-119">
          <mxGeometry y="213" width="520" height="53" as="geometry" />
        </mxCell>
        <mxCell id="vjRFTojWmEDm4jzNf1Fv-149" value="Q2" style="shape=partialRectangle;html=1;whiteSpace=wrap;connectable=0;strokeColor=inherit;overflow=hidden;fillColor=none;top=0;left=0;bottom=0;right=0;pointerEvents=1;fontSize=16;" vertex="1" parent="vjRFTojWmEDm4jzNf1Fv-148">
          <mxGeometry width="87" height="53" as="geometry">
            <mxRectangle width="87" height="53" as="alternateBounds" />
          </mxGeometry>
        </mxCell>
        <mxCell id="vjRFTojWmEDm4jzNf1Fv-150" style="shape=partialRectangle;html=1;whiteSpace=wrap;connectable=0;strokeColor=inherit;overflow=hidden;fillColor=none;top=0;left=0;bottom=0;right=0;pointerEvents=1;fontSize=16;" vertex="1" parent="vjRFTojWmEDm4jzNf1Fv-148">
          <mxGeometry x="87" width="86" height="53" as="geometry">
            <mxRectangle width="86" height="53" as="alternateBounds" />
          </mxGeometry>
        </mxCell>
        <mxCell id="vjRFTojWmEDm4jzNf1Fv-151" style="shape=partialRectangle;html=1;whiteSpace=wrap;connectable=0;strokeColor=inherit;overflow=hidden;fillColor=none;top=0;left=0;bottom=0;right=0;pointerEvents=1;fontSize=16;" vertex="1" parent="vjRFTojWmEDm4jzNf1Fv-148">
          <mxGeometry x="173" width="87" height="53" as="geometry">
            <mxRectangle width="87" height="53" as="alternateBounds" />
          </mxGeometry>
        </mxCell>
        <mxCell id="vjRFTojWmEDm4jzNf1Fv-152" style="shape=partialRectangle;html=1;whiteSpace=wrap;connectable=0;strokeColor=inherit;overflow=hidden;fillColor=none;top=0;left=0;bottom=0;right=0;pointerEvents=1;fontSize=16;" vertex="1" parent="vjRFTojWmEDm4jzNf1Fv-148">
          <mxGeometry x="260" width="87" height="53" as="geometry">
            <mxRectangle width="87" height="53" as="alternateBounds" />
          </mxGeometry>
        </mxCell>
        <mxCell id="vjRFTojWmEDm4jzNf1Fv-153" style="shape=partialRectangle;html=1;whiteSpace=wrap;connectable=0;strokeColor=inherit;overflow=hidden;fillColor=none;top=0;left=0;bottom=0;right=0;pointerEvents=1;fontSize=16;" vertex="1" parent="vjRFTojWmEDm4jzNf1Fv-148">
          <mxGeometry x="347" width="86" height="53" as="geometry">
            <mxRectangle width="86" height="53" as="alternateBounds" />
          </mxGeometry>
        </mxCell>
        <mxCell id="vjRFTojWmEDm4jzNf1Fv-154" value="Q4" style="shape=partialRectangle;html=1;whiteSpace=wrap;connectable=0;strokeColor=inherit;overflow=hidden;fillColor=none;top=0;left=0;bottom=0;right=0;pointerEvents=1;fontSize=16;" vertex="1" parent="vjRFTojWmEDm4jzNf1Fv-148">
          <mxGeometry x="433" width="87" height="53" as="geometry">
            <mxRectangle width="87" height="53" as="alternateBounds" />
          </mxGeometry>
        </mxCell>
        <mxCell id="vjRFTojWmEDm4jzNf1Fv-155" style="shape=tableRow;horizontal=0;startSize=0;swimlaneHead=0;swimlaneBody=0;strokeColor=inherit;top=0;left=0;bottom=0;right=0;collapsible=0;dropTarget=0;fillColor=none;points=[[0,0.5],[1,0.5]];portConstraint=eastwest;fontSize=16;" vertex="1" parent="vjRFTojWmEDm4jzNf1Fv-119">
          <mxGeometry y="266" width="520" height="53" as="geometry" />
        </mxCell>
        <mxCell id="vjRFTojWmEDm4jzNf1Fv-156" value="Q3" style="shape=partialRectangle;html=1;whiteSpace=wrap;connectable=0;strokeColor=inherit;overflow=hidden;fillColor=none;top=0;left=0;bottom=0;right=0;pointerEvents=1;fontSize=16;" vertex="1" parent="vjRFTojWmEDm4jzNf1Fv-155">
          <mxGeometry width="87" height="53" as="geometry">
            <mxRectangle width="87" height="53" as="alternateBounds" />
          </mxGeometry>
        </mxCell>
        <mxCell id="vjRFTojWmEDm4jzNf1Fv-157" style="shape=partialRectangle;html=1;whiteSpace=wrap;connectable=0;strokeColor=inherit;overflow=hidden;fillColor=none;top=0;left=0;bottom=0;right=0;pointerEvents=1;fontSize=16;" vertex="1" parent="vjRFTojWmEDm4jzNf1Fv-155">
          <mxGeometry x="87" width="86" height="53" as="geometry">
            <mxRectangle width="86" height="53" as="alternateBounds" />
          </mxGeometry>
        </mxCell>
        <mxCell id="vjRFTojWmEDm4jzNf1Fv-158" style="shape=partialRectangle;html=1;whiteSpace=wrap;connectable=0;strokeColor=inherit;overflow=hidden;fillColor=none;top=0;left=0;bottom=0;right=0;pointerEvents=1;fontSize=16;" vertex="1" parent="vjRFTojWmEDm4jzNf1Fv-155">
          <mxGeometry x="173" width="87" height="53" as="geometry">
            <mxRectangle width="87" height="53" as="alternateBounds" />
          </mxGeometry>
        </mxCell>
        <mxCell id="vjRFTojWmEDm4jzNf1Fv-159" style="shape=partialRectangle;html=1;whiteSpace=wrap;connectable=0;strokeColor=inherit;overflow=hidden;fillColor=none;top=0;left=0;bottom=0;right=0;pointerEvents=1;fontSize=16;" vertex="1" parent="vjRFTojWmEDm4jzNf1Fv-155">
          <mxGeometry x="260" width="87" height="53" as="geometry">
            <mxRectangle width="87" height="53" as="alternateBounds" />
          </mxGeometry>
        </mxCell>
        <mxCell id="vjRFTojWmEDm4jzNf1Fv-160" style="shape=partialRectangle;html=1;whiteSpace=wrap;connectable=0;strokeColor=inherit;overflow=hidden;fillColor=none;top=0;left=0;bottom=0;right=0;pointerEvents=1;fontSize=16;" vertex="1" parent="vjRFTojWmEDm4jzNf1Fv-155">
          <mxGeometry x="347" width="86" height="53" as="geometry">
            <mxRectangle width="86" height="53" as="alternateBounds" />
          </mxGeometry>
        </mxCell>
        <mxCell id="vjRFTojWmEDm4jzNf1Fv-161" value="Q4" style="shape=partialRectangle;html=1;whiteSpace=wrap;connectable=0;strokeColor=inherit;overflow=hidden;fillColor=none;top=0;left=0;bottom=0;right=0;pointerEvents=1;fontSize=16;" vertex="1" parent="vjRFTojWmEDm4jzNf1Fv-155">
          <mxGeometry x="433" width="87" height="53" as="geometry">
            <mxRectangle width="87" height="53" as="alternateBounds" />
          </mxGeometry>
        </mxCell>
        <mxCell id="vjRFTojWmEDm4jzNf1Fv-162" style="shape=tableRow;horizontal=0;startSize=0;swimlaneHead=0;swimlaneBody=0;strokeColor=inherit;top=0;left=0;bottom=0;right=0;collapsible=0;dropTarget=0;fillColor=none;points=[[0,0.5],[1,0.5]];portConstraint=eastwest;fontSize=16;" vertex="1" parent="vjRFTojWmEDm4jzNf1Fv-119">
          <mxGeometry y="319" width="520" height="53" as="geometry" />
        </mxCell>
        <mxCell id="vjRFTojWmEDm4jzNf1Fv-163" value="Q4" style="shape=partialRectangle;html=1;whiteSpace=wrap;connectable=0;strokeColor=inherit;overflow=hidden;fillColor=none;top=0;left=0;bottom=0;right=0;pointerEvents=1;fontSize=16;" vertex="1" parent="vjRFTojWmEDm4jzNf1Fv-162">
          <mxGeometry width="87" height="53" as="geometry">
            <mxRectangle width="87" height="53" as="alternateBounds" />
          </mxGeometry>
        </mxCell>
        <mxCell id="vjRFTojWmEDm4jzNf1Fv-164" style="shape=partialRectangle;html=1;whiteSpace=wrap;connectable=0;strokeColor=inherit;overflow=hidden;fillColor=none;top=0;left=0;bottom=0;right=0;pointerEvents=1;fontSize=16;" vertex="1" parent="vjRFTojWmEDm4jzNf1Fv-162">
          <mxGeometry x="87" width="86" height="53" as="geometry">
            <mxRectangle width="86" height="53" as="alternateBounds" />
          </mxGeometry>
        </mxCell>
        <mxCell id="vjRFTojWmEDm4jzNf1Fv-165" style="shape=partialRectangle;html=1;whiteSpace=wrap;connectable=0;strokeColor=inherit;overflow=hidden;fillColor=none;top=0;left=0;bottom=0;right=0;pointerEvents=1;fontSize=16;" vertex="1" parent="vjRFTojWmEDm4jzNf1Fv-162">
          <mxGeometry x="173" width="87" height="53" as="geometry">
            <mxRectangle width="87" height="53" as="alternateBounds" />
          </mxGeometry>
        </mxCell>
        <mxCell id="vjRFTojWmEDm4jzNf1Fv-166" style="shape=partialRectangle;html=1;whiteSpace=wrap;connectable=0;strokeColor=inherit;overflow=hidden;fillColor=none;top=0;left=0;bottom=0;right=0;pointerEvents=1;fontSize=16;" vertex="1" parent="vjRFTojWmEDm4jzNf1Fv-162">
          <mxGeometry x="260" width="87" height="53" as="geometry">
            <mxRectangle width="87" height="53" as="alternateBounds" />
          </mxGeometry>
        </mxCell>
        <mxCell id="vjRFTojWmEDm4jzNf1Fv-167" style="shape=partialRectangle;html=1;whiteSpace=wrap;connectable=0;strokeColor=inherit;overflow=hidden;fillColor=none;top=0;left=0;bottom=0;right=0;pointerEvents=1;fontSize=16;" vertex="1" parent="vjRFTojWmEDm4jzNf1Fv-162">
          <mxGeometry x="347" width="86" height="53" as="geometry">
            <mxRectangle width="86" height="53" as="alternateBounds" />
          </mxGeometry>
        </mxCell>
        <mxCell id="vjRFTojWmEDm4jzNf1Fv-168" value="Q0" style="shape=partialRectangle;html=1;whiteSpace=wrap;connectable=0;strokeColor=inherit;overflow=hidden;fillColor=none;top=0;left=0;bottom=0;right=0;pointerEvents=1;fontSize=16;" vertex="1" parent="vjRFTojWmEDm4jzNf1Fv-162">
          <mxGeometry x="433" width="87" height="53" as="geometry">
            <mxRectangle width="87" height="53" as="alternateBounds" />
          </mxGeometry>
        </mxCell>
      </root>
    </mxGraphModel>
  </diagram>
</mxfile>
